<svg xmlns="http://www.w3.org/2000/svg" xmlns:xlink="http://www.w3.org/1999/xlink" width="500" zoomAndPan="magnify" viewBox="0 0 375 374.999991" height="500" preserveAspectRatio="xMidYMid meet" version="1.0"><defs><clipPath id="131ee1e9f5"><path d="M 219 156 L 300.261719 156 L 300.261719 163 L 219 163 Z M 219 156 " clip-rule="nonzero"/></clipPath><clipPath id="c0eaf580cf"><path d="M 74.511719 215 L 104 215 L 104 232 L 74.511719 232 Z M 74.511719 215 " clip-rule="nonzero"/></clipPath></defs><rect x="-37.5" width="450" fill="#ffffff" y="-37.499999" height="449.999989" fill-opacity="1"/><rect x="-37.5" width="450" fill="#fffef9" y="-37.499999" height="449.999989" fill-opacity="1"/><path fill="#122620" d="M 212.714844 152.582031 C 218.046875 149.78125 223.199219 146.707031 228.171875 143.316406 C 229.980469 142.140625 231.605469 140.742188 232.960938 139.023438 C 230.160156 139.292969 227.675781 140.605469 225.234375 141.871094 C 219.222656 145.035156 213.347656 148.425781 207.835938 152.402344 C 206.523438 153.351562 205.394531 154.480469 204.355469 155.699219 C 207.335938 155.382812 210.046875 153.9375 212.714844 152.582031 Z M 212.714844 152.582031 " fill-opacity="1" fill-rule="nonzero"/><path fill="#122620" d="M 204.355469 155.472656 C 202.546875 153.800781 199.382812 153.441406 197.078125 154.117188 C 194.5 155.339844 193.507812 159.089844 193.960938 161.574219 C 197.664062 160.085938 201.234375 157.960938 204.355469 155.472656 Z M 204.355469 155.472656 " fill-opacity="1" fill-rule="nonzero"/><path fill="#122620" d="M 194.003906 209.707031 C 194.367188 206.90625 191.609375 204.691406 192.105469 201.890625 C 192.242188 200.894531 192.738281 199.945312 193.191406 199.042969 C 197.574219 190.5 202.050781 182.003906 206.34375 173.417969 C 207.425781 170.613281 211.269531 170.164062 211.945312 167.089844 C 213.078125 163.925781 210.636719 161.167969 209.234375 158.59375 C 208.691406 157.507812 207.472656 155.972656 206.160156 156.921875 C 202.183594 159.089844 198.253906 161.441406 194.410156 163.789062 C 193.191406 164.378906 193.644531 165.914062 194.183594 166.773438 C 195.902344 169.847656 197.753906 172.828125 199.519531 175.855469 C 193.597656 183.359375 187.722656 190.863281 181.800781 198.273438 C 169.011719 196.421875 155.726562 204.328125 150.890625 216.261719 C 141.667969 217.617188 132.496094 219.199219 123.273438 220.644531 C 120.835938 217.164062 119.386719 212.871094 116.316406 209.886719 C 111.433594 211.878906 107.09375 215.039062 102.53125 217.660156 C 103.027344 220.914062 104.972656 224.035156 107.367188 226.25 C 110.214844 228.554688 113.605469 226.292969 116.40625 225.34375 C 126.210938 225.617188 136.019531 226.066406 145.828125 226.292969 C 147.046875 226.382812 148.269531 226.429688 149.351562 226.972656 C 151.839844 228.28125 152.378906 231.808594 155.226562 232.667969 C 158.300781 233.480469 160.96875 231.21875 163.5 229.820312 C 166.121094 232.035156 168.875 235.46875 172.71875 233.839844 C 175.882812 235.46875 180.039062 235.964844 182.976562 233.570312 C 185.507812 231.808594 186.320312 228.644531 186.457031 225.707031 C 189.890625 223.3125 187.902344 218.972656 187.453125 215.671875 C 189.980469 214.316406 193.328125 212.917969 194.003906 209.707031 Z M 182.617188 227.46875 C 182.34375 231.175781 177.238281 233.117188 174.617188 230.453125 C 171.859375 228.191406 172.855469 223.445312 176.152344 222.316406 C 179.363281 221.007812 183.203125 223.988281 182.617188 227.46875 Z M 182.617188 227.46875 " fill-opacity="1" fill-rule="nonzero"/><path fill="#122620" d="M 194.140625 161.800781 C 191.066406 162.164062 188.355469 163.699219 185.644531 165.101562 C 179.679688 168.265625 173.804688 171.699219 168.378906 175.722656 C 167.25 176.488281 166.34375 177.527344 165.578125 178.660156 C 171.226562 177.394531 176.109375 174.140625 181.125 171.335938 C 185.644531 168.445312 190.660156 166.003906 194.140625 161.800781 Z M 194.140625 161.800781 " fill-opacity="1" fill-rule="nonzero"/><path fill="#122620" d="M 121.46875 206.136719 C 127.253906 203.0625 132.945312 199.71875 138.324219 195.921875 C 139.679688 194.972656 140.902344 193.800781 141.941406 192.488281 C 138.867188 192.804688 136.15625 194.339844 133.445312 195.699219 C 127.929688 198.589844 122.550781 201.753906 117.492188 205.367188 C 115.953125 206.410156 114.550781 207.675781 113.421875 209.164062 C 116.316406 208.804688 118.9375 207.449219 121.46875 206.136719 Z M 121.46875 206.136719 " fill-opacity="1" fill-rule="nonzero"/><path fill="#122620" d="M 113.511719 208.847656 C 111.433594 207.628906 108.8125 206.949219 106.417969 207.402344 C 103.300781 208.441406 103.207031 212.238281 102.304688 214.859375 C 102.710938 214.816406 103.570312 214.722656 103.976562 214.679688 C 107.277344 212.960938 110.621094 211.199219 113.511719 208.847656 Z M 113.511719 208.847656 " fill-opacity="1" fill-rule="nonzero"/><g clip-path="url(#131ee1e9f5)"><path fill="#122620" d="M 219.132812 161.664062 C 220.035156 163.023438 221.707031 162.570312 223.066406 162.613281 L 300.484375 159.859375 L 221.4375 156.515625 C 220.535156 158.1875 219.539062 159.8125 219.132812 161.664062 Z M 219.132812 161.664062 " fill-opacity="1" fill-rule="nonzero"/></g><path fill="#122620" d="M 217.597656 172.691406 C 218.5 174.050781 220.171875 173.597656 221.527344 173.640625 L 298.945312 170.886719 L 219.902344 167.542969 C 218.996094 169.214844 218.003906 170.839844 217.597656 172.691406 Z M 217.597656 172.691406 " fill-opacity="1" fill-rule="nonzero"/><path fill="#122620" d="M 199.019531 206 C 199.925781 207.359375 201.597656 206.90625 202.953125 206.949219 L 280.371094 204.195312 L 201.328125 200.847656 C 200.421875 202.523438 199.429688 204.148438 199.019531 206 Z M 199.019531 206 " fill-opacity="1" fill-rule="nonzero"/><path fill="#122620" d="M 203.902344 194.929688 C 204.804688 196.285156 206.476562 195.832031 207.835938 195.878906 L 285.253906 193.121094 L 206.207031 189.777344 C 205.304688 191.402344 204.308594 193.074219 203.902344 194.929688 Z M 203.902344 194.929688 " fill-opacity="1" fill-rule="nonzero"/><path fill="#122620" d="M 197.484375 217.164062 C 198.386719 218.519531 200.0625 218.070312 201.417969 218.113281 L 278.835938 215.355469 L 199.746094 212.011719 C 198.839844 213.683594 197.847656 215.3125 197.484375 217.164062 Z M 197.484375 217.164062 " fill-opacity="1" fill-rule="nonzero"/><path fill="#122620" d="M 210.09375 183.945312 C 210.996094 185.300781 212.671875 184.851562 214.027344 184.894531 L 291.445312 182.140625 L 212.398438 178.792969 C 211.496094 180.464844 210.5 182.09375 210.09375 183.945312 Z M 210.09375 183.945312 " fill-opacity="1" fill-rule="nonzero"/><g clip-path="url(#c0eaf580cf)"><path fill="#122620" d="M 96.476562 217.570312 C 91.230469 220.191406 86.171875 223.175781 81.246094 226.382812 C 78.804688 228.054688 76.316406 229.636719 74.511719 231.988281 C 76.949219 231.761719 79.164062 230.679688 81.335938 229.636719 C 86.214844 227.152344 90.960938 224.394531 95.617188 221.414062 C 98.28125 219.652344 100.996094 217.886719 103.117188 215.449219 C 100.679688 215.355469 98.554688 216.621094 96.476562 217.570312 Z M 96.476562 217.570312 " fill-opacity="1" fill-rule="nonzero"/></g><path fill="#122620" d="M 195.316406 222.949219 C 194.320312 224.894531 192.875 226.835938 193.417969 229.097656 C 221.210938 228.328125 249.007812 226.835938 276.847656 226.339844 C 274.992188 226.023438 273.140625 225.75 271.289062 225.707031 C 245.976562 224.847656 220.667969 223.761719 195.316406 222.949219 Z M 195.316406 222.949219 " fill-opacity="1" fill-rule="nonzero"/></svg>